<mxfile host="app.diagrams.net" modified="2023-06-12T21:26:53.918Z" agent="Mozilla/5.0 (Windows NT 10.0; Win64; x64) AppleWebKit/537.36 (KHTML, like Gecko) Chrome/114.0.0.0 Safari/537.36" etag="pNpFczfu_Fa9KukDFSG1" version="21.3.8" type="device">
  <diagram name="Page-1" id="0dIKAr-8Q8T6TUFxtayJ">
    <mxGraphModel dx="502" dy="493" grid="1" gridSize="10" guides="1" tooltips="1" connect="1" arrows="1" fold="1" page="1" pageScale="1" pageWidth="850" pageHeight="1100" math="0" shadow="0">
      <root>
        <mxCell id="0" />
        <mxCell id="1" parent="0" />
      </root>
    </mxGraphModel>
  </diagram>
</mxfile>
